<svg width="15" height="17" viewBox="0 0 15 17" fill="none" xmlns="http://www.w3.org/2000/svg">
<path d="M14.7305 10.2945V4.31246L2.94609 2.18472V1.44931C2.94609 0.65017 2.29596 0 1.49681 0H0V0.982031H1.49678C1.75443 0.982031 1.96406 1.19166 1.96406 1.44931V10.5169C1.96406 11.5637 2.81568 12.4153 3.86249 12.4153H4.25547V13.5344C4.05484 13.4465 3.83349 13.3974 3.60078 13.3974C2.69829 13.3974 1.96406 14.1316 1.96406 15.0341C1.96406 15.9366 2.69829 16.6708 3.60078 16.6708C4.44804 16.6708 5.14692 16.0237 5.22928 15.1978H5.2375V12.4153H13.7484V13.5344C13.5478 13.4465 13.3265 13.3974 13.0938 13.3974C12.1913 13.3974 11.457 14.1316 11.457 15.0341C11.457 15.9366 12.1913 16.6708 13.0938 16.6708C13.941 16.6708 14.6399 16.0237 14.7223 15.1978H14.7305V11.4333H3.86249C3.35717 11.4333 2.94609 11.0222 2.94609 10.5169V10.1308L14.7305 10.2945ZM3.60078 15.6888C3.23979 15.6888 2.94609 15.3951 2.94609 15.0341C2.94609 14.6731 3.23979 14.3794 3.60078 14.3794C3.96178 14.3794 4.25547 14.6731 4.25547 15.0341C4.25547 15.3951 3.96178 15.6888 3.60078 15.6888ZM13.0938 15.6888C12.7328 15.6888 12.4391 15.3951 12.4391 15.0341C12.4391 14.6731 12.7328 14.3794 13.0938 14.3794C13.4547 14.3794 13.7484 14.6731 13.7484 15.0341C13.7484 15.3951 13.4547 15.6888 13.0938 15.6888ZM7.85625 9.21685L5.89219 9.18959V3.71457L7.85625 4.06918V9.21685ZM8.83828 4.2465L10.6387 4.57158V9.25551L8.83828 9.2305V4.2465ZM4.91016 9.17594L2.94609 9.14867V3.18263L4.91016 3.53724V9.17594ZM13.7484 9.29869L11.6207 9.26913V4.74887L13.7484 5.13304V9.29869Z" fill="white"/>
</svg>
