<svg width="18" height="18" viewBox="0 0 18 18" fill="none" xmlns="http://www.w3.org/2000/svg">
<g clip-path="url(#clip0)">
<path d="M12.4554 10.6812C14.6161 7.63009 13.8934 3.40521 10.8423 1.24502C7.79123 -0.915172 3.56634 -0.193044 1.40615 2.85858C-0.754039 5.90969 -0.0319113 10.1341 3.01971 12.2942C5.19745 13.8361 8.07667 13.9548 10.3736 12.5983L15.3645 17.5592C15.9034 18.1265 16.8 18.1492 17.3673 17.6103C17.9346 17.072 17.9573 16.1754 17.4189 15.6081C17.4019 15.59 17.3854 15.5735 17.3673 15.5565L12.4554 10.6812ZM6.92663 11.1437C4.51558 11.1442 2.56083 9.19101 2.55928 6.77996C2.55877 4.36891 4.51197 2.41415 6.92354 2.41312C9.33149 2.41209 11.2852 4.36219 11.2899 6.77015C11.294 9.18172 9.34181 11.1396 6.92973 11.1437C6.9287 11.1437 6.92818 11.1437 6.92663 11.1437Z" fill="#3CA6E2"/>
</g>
<defs>
<clipPath id="clip0">
<rect width="18" height="18" fill="white"/>
</clipPath>
</defs>
</svg>
