<svg width="17" height="17" viewBox="0 0 17 17" fill="none" xmlns="http://www.w3.org/2000/svg">
<g clip-path="url(#clip0)">
<path d="M16.9557 6.5211C16.8444 6.17687 16.5391 5.93238 16.1779 5.89982L11.2712 5.45429L9.33096 0.913001C9.1879 0.580183 8.86209 0.364746 8.50009 0.364746C8.13809 0.364746 7.81227 0.580183 7.66921 0.913779L5.72898 5.45429L0.821537 5.89982C0.460962 5.93316 0.15642 6.17687 0.044486 6.5211C-0.0674477 6.86533 0.0359256 7.2429 0.308691 7.4809L4.01755 10.7336L2.92389 15.5512C2.84387 15.9054 2.98135 16.2715 3.27526 16.484C3.43324 16.5981 3.61806 16.6562 3.80445 16.6562C3.96515 16.6562 4.12455 16.6129 4.26762 16.5273L8.50009 13.9977L12.731 16.5273C13.0406 16.7136 13.4309 16.6966 13.7241 16.484C14.0182 16.2709 14.1555 15.9046 14.0755 15.5512L12.9818 10.7336L16.6907 7.48155C16.9635 7.2429 17.0676 6.86598 16.9557 6.5211Z" fill="#3CA6E2"/>
</g>
<defs>
<clipPath id="clip0">
<rect width="17" height="17" fill="white"/>
</clipPath>
</defs>
</svg>
